<svg width="30" height="18" viewBox="0 0 30 18" fill="none" xmlns="http://www.w3.org/2000/svg">
<path d="M15.707 9.707C15.5195 9.89447 15.2652 9.99979 15 9.99979C14.7348 9.99979 14.4805 9.89447 14.293 9.707M14.25 8.5H14.2525M15.75 8.5H15.7525M17.25 9C17.25 9.29547 17.1918 9.58806 17.0787 9.86104C16.9657 10.134 16.7999 10.3821 16.591 10.591C16.3821 10.7999 16.134 10.9657 15.861 11.0787C15.5881 11.1918 15.2955 11.25 15 11.25C14.7045 11.25 14.4119 11.1918 14.139 11.0787C13.866 10.9657 13.6179 10.7999 13.409 10.591C13.2001 10.3821 13.0343 10.134 12.9213 9.86104C12.8082 9.58806 12.75 9.29547 12.75 9C12.75 8.40326 12.9871 7.83097 13.409 7.40901C13.831 6.98705 14.4033 6.75 15 6.75C15.5967 6.75 16.169 6.98705 16.591 7.40901C17.0129 7.83097 17.25 8.40326 17.25 9Z" stroke="white" stroke-opacity="0.5" stroke-width="0.5" stroke-linecap="round" stroke-linejoin="round"/>
</svg>
