<svg width="30" height="18" viewBox="0 0 30 18" fill="none" xmlns="http://www.w3.org/2000/svg">
<rect width="30" height="18" fill="#6892D0"/>
<path d="M14 8.33333H14.0033M16 8.33333H16.0033M14.0573 10.333C14.3074 10.0831 14.6464 9.94266 15 9.94267C15.3536 9.94267 15.6926 10.0831 15.9427 10.333M14.1429 8.14286L13.7143 7.71429M15.8571 8.14286L16.2857 7.71429M18 9C18 9.39397 17.9224 9.78407 17.7716 10.1481C17.6209 10.512 17.3999 10.8427 17.1213 11.1213C16.8427 11.3999 16.512 11.6209 16.1481 11.7716C15.7841 11.9224 15.394 12 15 12C14.606 12 14.2159 11.9224 13.8519 11.7716C13.488 11.6209 13.1573 11.3999 12.8787 11.1213C12.6001 10.8427 12.3791 10.512 12.2284 10.1481C12.0776 9.78407 12 9.39397 12 9C12 8.20435 12.3161 7.44129 12.8787 6.87868C13.4413 6.31607 14.2044 6 15 6C15.7956 6 16.5587 6.31607 17.1213 6.87868C17.6839 7.44129 18 8.20435 18 9Z" stroke="white" stroke-width="0.7" stroke-linecap="round" stroke-linejoin="round"/>
</svg>
