<svg width="30" height="18" viewBox="0 0 30 18" fill="none" xmlns="http://www.w3.org/2000/svg">
<rect width="30" height="18" fill="white"/>
<rect x="11" y="5" width="8" height="8" rx="4" fill="#EF5656"/>
<path d="M16.2727 9.4H17V7H16.2727V9.4ZM15.5455 7H13.9091C13.7582 7 13.6291 7.1 13.5745 7.244L13.0255 8.654C13.0091 8.7 13 8.748 13 8.8V9.2C13 9.30609 13.0383 9.40783 13.1065 9.48284C13.1747 9.55786 13.2672 9.6 13.3636 9.6H14.5109L14.3382 10.514C14.3345 10.534 14.3327 10.554 14.3327 10.576C14.3327 10.66 14.3636 10.734 14.4127 10.788L14.6055 11L15.8018 9.682C15.8691 9.61 15.9091 9.51 15.9091 9.4V7.4C15.9091 7.178 15.7455 7 15.5455 7Z" fill="white"/>
</svg>
