<svg width="30" height="18" viewBox="0 0 30 18" fill="none" xmlns="http://www.w3.org/2000/svg">
<rect width="30" height="18" fill="#A3BE8C"/>
<path d="M19.5 10.773C19.2385 10.773 18.977 10.8485 18.75 11C18.5279 11.1481 18.2669 11.2271 18 11.2271C17.7331 11.2271 17.4721 11.1481 17.25 11C17.0279 10.8519 16.7669 10.7729 16.5 10.7729C16.2331 10.7729 15.9721 10.8519 15.75 11C15.5279 11.1481 15.2669 11.2271 15 11.2271C14.7331 11.2271 14.4721 11.1481 14.25 11C14.0279 10.8519 13.7669 10.7729 13.5 10.7729C13.2331 10.7729 12.9721 10.8519 12.75 11C12.5279 11.1481 12.2669 11.2271 12 11.2271C11.7331 11.2271 11.4721 11.1481 11.25 11C11.0279 10.8519 10.7669 10.7729 10.5 10.773M13.5 6V7M15 6V7M16.5 6V7M13.5 4.5H13.505M15 4.5H15.005M16.5 4.5H16.505M19.5 13.5V10C19.5 9.73478 19.3946 9.48043 19.2071 9.29289C19.0196 9.10536 18.7652 9 18.5 9H11.5C11.2348 9 10.9804 9.10536 10.7929 9.29289C10.6054 9.48043 10.5 9.73478 10.5 10V13.5H19.5ZM18 9V8C18 7.73478 17.8946 7.48043 17.7071 7.29289C17.5196 7.10536 17.2652 7 17 7H13C12.7348 7 12.4804 7.10536 12.2929 7.29289C12.1054 7.48043 12 7.73478 12 8V9H18Z" stroke="white" stroke-linecap="round" stroke-linejoin="round"/>
</svg>
