<svg width="30" height="18" viewBox="0 0 30 18" fill="none" xmlns="http://www.w3.org/2000/svg">
<rect width="30" height="18" fill="#A3BE8C"/>
<path d="M18 10.182C17.8257 10.182 17.6513 10.2323 17.5 10.3333C17.3519 10.4321 17.178 10.4847 17 10.4847C16.822 10.4847 16.6481 10.4321 16.5 10.3333C16.3519 10.2346 16.178 10.1819 16 10.1819C15.822 10.1819 15.6481 10.2346 15.5 10.3333C15.3519 10.4321 15.178 10.4847 15 10.4847C14.822 10.4847 14.6481 10.4321 14.5 10.3333C14.3519 10.2346 14.178 10.1819 14 10.1819C13.822 10.1819 13.6481 10.2346 13.5 10.3333C13.3519 10.4321 13.178 10.4847 13 10.4847C12.822 10.4847 12.6481 10.4321 12.5 10.3333C12.352 10.2346 12.178 10.1819 12 10.182M14 7V7.66667M15 7V7.66667M16 7V7.66667M14 6H14.0033M15 6H15.0033M16 6H16.0033M18 12V9.66667C18 9.48986 17.9298 9.32029 17.8047 9.19526C17.6797 9.07024 17.5101 9 17.3333 9H12.6667C12.4899 9 12.3203 9.07024 12.1953 9.19526C12.0702 9.32029 12 9.48986 12 9.66667V12H18ZM17 9V8.33333C17 8.15652 16.9298 7.98695 16.8047 7.86193C16.6797 7.7369 16.5101 7.66667 16.3333 7.66667H13.6667C13.4899 7.66667 13.3203 7.7369 13.1953 7.86193C13.0702 7.98695 13 8.15652 13 8.33333V9H17Z" stroke="white" stroke-width="0.6" stroke-linecap="round" stroke-linejoin="round"/>
</svg>
