<svg width="30" height="18" viewBox="0 0 30 18" fill="none" xmlns="http://www.w3.org/2000/svg">
<rect width="30" height="18" fill="#BF616A"/>
<path d="M16.414 10.414C16.0389 10.7889 15.5303 10.9996 15 10.9996C14.4697 10.9996 13.9611 10.7889 13.586 10.414M13.5 8H13.505M16.5 8H16.505M19.5 9C19.5 9.59095 19.3836 10.1761 19.1575 10.7221C18.9313 11.268 18.5998 11.7641 18.182 12.182C17.7641 12.5998 17.268 12.9313 16.7221 13.1575C16.1761 13.3836 15.5909 13.5 15 13.5C14.4091 13.5 13.8239 13.3836 13.2779 13.1575C12.732 12.9313 12.2359 12.5998 11.818 12.182C11.4002 11.7641 11.0687 11.268 10.8425 10.7221C10.6164 10.1761 10.5 9.59095 10.5 9C10.5 7.80653 10.9741 6.66193 11.818 5.81802C12.6619 4.97411 13.8065 4.5 15 4.5C16.1935 4.5 17.3381 4.97411 18.182 5.81802C19.0259 6.66193 19.5 7.80653 19.5 9Z" stroke="white" stroke-linecap="round" stroke-linejoin="round"/>
<path d="M10 4L11 7L12 6L10 4Z" stroke="white" stroke-linejoin="round"/>
<path d="M20 4L19 7L18 6L20 4Z" stroke="white" stroke-linejoin="round"/>
</svg>
