<svg width="30" height="18" viewBox="0 0 30 18" fill="none" xmlns="http://www.w3.org/2000/svg">
<rect width="30" height="18" fill="#BF616A"/>
<path d="M13.0667 5.81334L17.0333 9.78L17.74 9.07334L18.21 9.54334L17.3867 10.3667L18.4467 11.4267C18.5767 11.5567 18.5767 11.7667 18.4467 11.8967L18.21 12.1333C18.08 12.2633 17.87 12.2633 17.74 12.1333L16.6667 11.0767L15.8533 11.9L15.3833 11.43L16.09 10.7233L12.1233 6.75667V5.81334H13.0667ZM16.2967 8.33334L17.8767 6.75334V5.81334H16.9333L15.3533 7.39334L16.2967 8.33334ZM14.6467 10L13.7033 9.04334L12.9667 9.78L12.26 9.07334L11.79 9.54334L12.6133 10.3667L11.5533 11.43C11.4233 11.56 11.4233 11.77 11.5533 11.9L11.79 12.1367C11.92 12.2667 12.13 12.2667 12.26 12.1367L13.3333 11.0767L14.1467 11.9L14.6167 11.43L13.91 10.7233L14.6467 10Z" fill="white"/>
</svg>
