<svg width="30" height="18" viewBox="0 0 30 18" fill="none" xmlns="http://www.w3.org/2000/svg">
<rect width="30" height="18" fill="#EF5656"/>
<path d="M15 8.1196L12.8815 6H12V6.88196L14.1185 9.00156L13.4118 9.70861L12.7515 9.04792L12.3123 9.48734L13.0816 10.2571L12.0911 11.2482C11.9696 11.3697 11.9696 11.566 12.0911 11.6876L12.3123 11.9088C12.4337 12.0304 12.63 12.0304 12.7515 11.9088L13.7544 10.9209L14.5145 11.6907L14.9537 11.2513L14.2933 10.5906L15 9.88352L15.7067 10.5906L15.0463 11.2513L15.4855 11.6907L16.2456 10.9209L17.2485 11.9088C17.37 12.0304 17.5663 12.0304 17.6877 11.9088L17.9089 11.6876C18.0304 11.566 18.0304 11.3697 17.9089 11.2482L16.9184 10.2571L17.6877 9.48734L17.2485 9.04792L16.5882 9.70861L15.8815 9.00156L18 6.88196V6H17.1185L15 8.1196Z" fill="white"/>
</svg>
