<svg width="30" height="18" viewBox="0 0 30 18" fill="none" xmlns="http://www.w3.org/2000/svg">
<rect width="30" height="18" fill="white"/>
<rect x="11" y="5" width="8" height="8" rx="4" fill="#BF616A"/>
<path d="M16.1667 9.5H16.8333V7.5H16.1667V9.5ZM15.5 7.5H14C13.8617 7.5 13.7433 7.58333 13.6933 7.70333L13.19 8.87833C13.175 8.91667 13.1667 8.95667 13.1667 9V9.33333C13.1667 9.42174 13.2018 9.50652 13.2643 9.56904C13.3268 9.63155 13.4116 9.66667 13.5 9.66667H14.5517L14.3933 10.4283C14.39 10.445 14.3883 10.4617 14.3883 10.48C14.3883 10.55 14.4167 10.6117 14.4617 10.6567L14.6383 10.8333L15.735 9.735C15.7967 9.675 15.8333 9.59167 15.8333 9.5V7.83333C15.8333 7.64833 15.6833 7.5 15.5 7.5Z" fill="white"/>
</svg>
